<?xml version="1.0" standalone="no"?>
<!DOCTYPE svg PUBLIC "-//W3C//DTD SVG 20010904//EN"
 "http://www.w3.org/TR/2001/REC-SVG-20010904/DTD/svg10.dtd">
<svg version="1.0" xmlns="http://www.w3.org/2000/svg"
 width="920.000000pt" height="642.000000pt" viewBox="0 0 920.000000 642.000000"
 preserveAspectRatio="xMidYMid meet">

<g transform="translate(0.000000,642.000000) scale(0.100000,-0.100000)"
fill="#FFD700" stroke="#FFD700">
<path d="M1963 6149 c-84 -13 -193 -51 -261 -91 -83 -49 -222 -190 -267 -271
-69 -126 -89 -203 -89 -357 -1 -115 3 -146 22 -210 132 -420 567 -634 973
-479 211 81 388 283 446 509 22 88 22 263 -1 350 -68 256 -266 460 -515 529
-88 25 -223 33 -308 20z m182 -154 l40 -13 -69 -1 c-149 -2 -289 -63 -401
-176 -80 -79 -126 -160 -156 -267 l-19 -73 4 90 c5 111 30 183 94 268 56 74
147 138 235 166 73 23 211 26 272 6z"/>
<path d="M4814 4883 c-16 -3 -37 -34 -76 -111 -31 -59 -64 -129 -74 -156 -10
-27 -19 -45 -21 -39 -2 6 16 68 40 139 24 71 45 136 48 144 5 19 -15 17 -178
-16 -283 -56 -572 -180 -806 -346 -83 -59 -240 -188 -235 -194 2 -2 28 3 58
11 91 25 307 63 455 80 172 20 551 23 720 6 600 -62 1154 -259 1639 -584 69
-46 90 -56 97 -46 21 33 118 229 139 281 l22 58 -63 71 c-334 377 -829 632
-1349 694 -106 13 -366 18 -416 8z"/>
<path d="M833 4815 c-224 -50 -393 -260 -393 -488 0 -269 200 -483 470 -503
378 -29 649 370 485 714 -100 210 -339 328 -562 277z m152 -82 c39 -7 38 -7
-35 -19 -177 -27 -308 -139 -356 -304 l-14 -45 4 66 c11 197 196 337 401 302z"/>
<path d="M4290 4363 c-1123 -43 -2135 -589 -2787 -1503 -84 -119 -163 -247
-156 -254 4 -3 28 -6 53 -6 67 0 225 -42 301 -80 35 -18 88 -51 117 -73 88
-67 169 -197 123 -197 -5 0 -23 23 -41 50 -70 109 -201 194 -363 235 -77 19
-155 30 -190 26 -18 -2 165 -271 297 -436 102 -128 402 -428 529 -529 461
-367 988 -614 1535 -720 289 -56 344 -61 719 -61 193 0 354 3 358 7 4 3 -23
42 -60 85 -96 112 -101 131 -9 38 210 -215 470 -325 765 -325 l120 0 18 43
c43 99 64 209 68 357 6 161 -9 270 -52 388 -30 83 -24 94 9 17 37 -81 72 -198
86 -283 12 -72 13 -73 38 -67 37 9 278 126 385 186 141 80 360 228 483 327
l111 90 43 -60 c59 -80 188 -211 283 -286 368 -291 860 -404 1329 -306 l77 17
15 66 c43 190 46 486 7 669 -60 276 -182 524 -359 728 l-69 80 49 54 c184 206
315 467 380 756 19 85 22 130 22 314 0 184 -3 229 -21 314 -12 54 -23 100 -25
101 -14 15 -238 48 -350 52 -508 21 -993 -197 -1306 -585 l-78 -98 -89 73
c-535 439 -1224 721 -1915 782 -125 11 -346 18 -450 14z m-382 -558 c482 -571
584 -1365 262 -2034 -94 -194 -198 -343 -358 -513 -67 -71 -100 -88 -42 -21
96 109 239 360 314 553 193 488 196 1070 9 1570 -67 179 -203 424 -307 555
-95 118 6 28 122 -110z m-828 -501 c159 -47 299 -163 370 -308 90 -182 91
-366 4 -546 -28 -57 -57 -95 -118 -155 -126 -125 -249 -176 -426 -176 -332 -1
-600 267 -600 601 0 291 193 529 485 596 73 17 207 11 285 -12z"/>
<path d="M2851 3012 l-24 -8 25 -16 c32 -21 58 -76 58 -123 0 -70 -49 -126
-122 -140 -43 -8 -120 22 -137 54 -24 43 -33 23 -29 -61 2 -63 9 -95 28 -132
89 -176 333 -212 475 -71 139 139 97 384 -80 470 -56 28 -149 41 -194 27z"/>
<path d="M1270 3499 c-32 -13 -78 -56 -96 -91 -25 -47 -18 -128 15 -179 96
-152 331 -81 331 100 0 106 -77 182 -183 180 -23 0 -53 -5 -67 -10z m90 -38
c0 -5 -14 -11 -31 -15 -29 -6 -80 -49 -106 -91 -7 -11 -6 -2 2 20 18 45 45 70
90 84 40 12 45 13 45 2z"/>
<path d="M4015 760 c86 -69 213 -131 347 -168 77 -21 358 -24 424 -4 42 12 42
13 53 75 6 35 11 78 11 96 l0 33 -52 -6 c-81 -10 -377 -24 -428 -20 -25 1
-103 5 -175 8 -71 4 -150 9 -175 12 l-45 7 40 -33z"/>
</g>
</svg>
