<?xml version="1.0" standalone="no"?>
<!DOCTYPE svg PUBLIC "-//W3C//DTD SVG 20010904//EN"
 "http://www.w3.org/TR/2001/REC-SVG-20010904/DTD/svg10.dtd">
<svg version="1.0" xmlns="http://www.w3.org/2000/svg"
 width="920.000000pt" height="642.000000pt" viewBox="0 0 920.000000 642.000000"
 preserveAspectRatio="xMidYMid meet">

<g transform="translate(0.000000,642.000000) scale(0.100000,-0.100000)"
fill="#FFD700" stroke="#FFD700">
<path d="M7025 6151 c-247 -40 -450 -188 -555 -406 -56 -115 -73 -190 -73
-320 0 -134 17 -207 77 -330 180 -366 631 -510 996 -319 172 90 300 247 362
444 19 64 23 95 22 210 0 117 -4 145 -26 212 -35 106 -89 197 -161 274 -143
154 -300 227 -507 238 -47 3 -108 1 -135 -3z m298 -161 c91 -28 182 -92 239
-167 64 -85 89 -157 94 -268 l4 -90 -19 73 c-70 256 -301 439 -557 443 l-69 1
40 13 c63 21 192 18 268 -5z"/>
<path d="M3960 4875 c-512 -64 -1008 -321 -1339 -694 l-63 -71 22 -58 c21 -52
118 -248 139 -281 7 -10 28 0 97 46 485 325 1039 522 1639 584 169 17 548 14
720 -6 148 -17 364 -55 455 -80 30 -8 56 -13 58 -11 5 6 -152 135 -235 194
-234 166 -523 290 -806 346 -163 33 -183 35 -178 16 3 -8 24 -73 48 -144 24
-71 42 -133 40 -139 -2 -6 -11 12 -21 39 -10 27 -43 97 -73 155 -48 94 -59
108 -85 113 -51 10 -307 5 -418 -9z"/>
<path d="M8195 4823 c-168 -22 -317 -132 -390 -285 -99 -207 -43 -455 134
-603 166 -138 410 -151 593 -32 265 172 306 549 83 772 -114 115 -267 168
-420 148z m219 -112 c119 -52 195 -159 202 -280 l4 -66 -14 45 c-21 74 -55
130 -110 185 -63 63 -146 104 -246 120 -60 10 -69 13 -45 18 59 11 160 0 209
-22z"/>
<path d="M4660 4363 c-746 -20 -1530 -315 -2115 -796 l-89 -73 -78 98 c-313
388 -798 606 -1306 585 -112 -4 -336 -37 -350 -52 -2 -1 -13 -47 -25 -101 -18
-85 -21 -130 -21 -314 0 -184 3 -229 22 -314 65 -289 196 -550 380 -756 l49
-54 -69 -80 c-177 -204 -299 -452 -359 -728 -39 -183 -36 -479 7 -669 l15 -66
77 -17 c332 -69 662 -37 982 99 228 96 489 300 630 493 l43 60 111 -90 c123
-99 342 -247 483 -327 107 -60 348 -177 385 -186 25 -6 26 -5 38 67 14 85 49
202 86 283 33 77 39 66 9 -17 -79 -216 -72 -541 16 -745 l18 -43 120 0 c295 0
555 110 765 325 92 93 87 74 -9 -38 -37 -43 -64 -82 -60 -85 4 -4 165 -7 358
-7 375 0 430 5 719 61 547 106 1074 353 1535 720 127 101 427 401 529 529 132
165 315 434 297 436 -35 4 -113 -7 -190 -26 -162 -41 -293 -126 -363 -235 -18
-27 -36 -50 -41 -50 -46 0 35 130 123 197 29 22 82 55 117 73 76 38 234 80
301 80 25 0 49 3 53 6 7 7 -72 135 -156 254 -554 776 -1385 1300 -2310 1455
-225 37 -483 54 -727 48z m794 -395 c-4 -7 -22 -31 -40 -53 -104 -131 -240
-376 -307 -555 -187 -500 -184 -1082 9 -1570 75 -193 218 -444 314 -553 58
-67 25 -50 -42 21 -391 414 -579 925 -539 1457 35 461 220 869 545 1203 60 62
74 73 60 50z m1020 -672 c200 -67 349 -228 401 -431 19 -76 19 -214 0 -290
-53 -204 -208 -367 -408 -430 -65 -21 -102 -26 -177 -26 -177 0 -300 51 -426
176 -93 92 -144 183 -169 300 -72 342 161 675 510 729 67 10 194 -3 269 -28z"/>
<path d="M6195 3002 c-64 -22 -109 -54 -145 -104 -113 -155 -57 -366 117 -445
140 -64 314 -3 383 133 19 37 26 69 28 132 4 84 -5 104 -29 61 -17 -32 -94
-62 -137 -54 -73 14 -122 70 -122 140 0 47 26 102 58 123 l25 16 -24 7 c-43
12 -103 9 -154 -9z"/>
<path d="M7790 3499 c-32 -13 -78 -56 -96 -91 -8 -15 -14 -50 -14 -79 0 -181
235 -252 331 -100 80 126 -6 283 -154 280 -23 0 -53 -5 -67 -10z m138 -61 c17
-11 32 -21 32 -23 0 -1 7 -20 15 -41 9 -22 10 -31 2 -19 -26 42 -77 85 -106
91 -17 4 -31 11 -31 15 0 13 49 0 88 -23z"/>
<path d="M4350 758 c0 -17 5 -60 11 -94 11 -61 12 -64 47 -75 57 -17 292 -23
364 -10 88 17 202 55 275 94 63 32 175 109 168 115 -1 2 -49 -2 -106 -8 -128
-14 -499 -15 -634 -1 -55 6 -106 11 -112 11 -8 0 -13 -13 -13 -32z"/>
</g>
</svg>
